<?xml version="1.0" encoding="UTF-8"?>
<!DOCTYPE svg PUBLIC "-//W3C//DTD SVG 1.1//EN" "http://www.w3.org/Graphics/SVG/1.1/DTD/svg11.dtd">
<!-- Creator: CorelDRAW 2018 (64 Bit) -->
<svg xmlns="http://www.w3.org/2000/svg" xml:space="preserve" width="1745px" height="794px" version="1.1" style="shape-rendering:geometricPrecision; text-rendering:geometricPrecision; image-rendering:optimizeQuality; fill-rule:evenodd; clip-rule:evenodd"
viewBox="0 0 1745000 794030"
 xmlns:xlink="http://www.w3.org/1999/xlink">
 <defs>
  <style type="text/css">
   <![CDATA[
    .fil0 {fill:#EC268F}
    .fil6 {fill:#FEFEFE}
    .fil2 {fill:#FFF212}
    .fil3 {fill:#EC268F;fill-rule:nonzero}
    .fil1 {fill:#FFF212;fill-rule:nonzero}
    .fil5 {fill:url(#id2);fill-rule:nonzero}
    .fil4 {fill:url(#id3);fill-rule:nonzero}
   ]]>
  </style>
   <mask id="id0">
  <linearGradient id="id1" gradientUnits="userSpaceOnUse" x1="291050" y1="3950" x2="291050" y2="507810">
   <stop offset="0" style="stop-opacity:1; stop-color:white"/>
   <stop offset="1" style="stop-opacity:0; stop-color:white"/>
  </linearGradient>
    <rect style="fill:url(#id1)" x="14210" y="3250" width="1725340" height="487550"/>
   </mask>
  <linearGradient id="id2" gradientUnits="userSpaceOnUse" x1="808350" y1="610590" x2="808350" y2="689240">
   <stop offset="0" style="stop-opacity:1; stop-color:#727376"/>
   <stop offset="1" style="stop-opacity:1; stop-color:#373435"/>
  </linearGradient>
  <linearGradient id="id3" gradientUnits="userSpaceOnUse" x1="808350" y1="610590" x2="808350" y2="689240">
   <stop offset="0" style="stop-opacity:1; stop-color:#FEFEFE"/>
   <stop offset="1" style="stop-opacity:1; stop-color:#A9ABAE"/>
  </linearGradient>
 </defs>
 <g id="Layer_x0020_1">
  <metadata id="CorelCorpID_0Corel-Layer"/>
  <path class="fil0" d="M291050 3950l480940 234570c19420,9470 27560,33110 18080,52530l-234560 480940c-9470,19420 -33110,27560 -52530,18090l-480940 -234570c-19420,-9470 -27560,-33110 -18090,-52530l234570 -480940c9470,-19420 33110,-27560 52530,-18090z"/>
  <path class="fil1" d="M653660 570760l-27640 -56660 -127440 0 -29020 56660 -144450 0 170640 -347870 136870 0 168760 347870 -147720 0zm-65400 -142090l-25020 -59940 -25960 59940 50980 0z"/>
  <polygon class="fil2" points="268650,570760 438770,222890 301430,222890 254070,319730 206720,222890 69380,222890 185400,460150 131310,570760 "/>
  <path class="fil0" d="M1649080 313460c41000,0 74490,13930 95920,36640l-71790 56540c-9260,-11380 -24850,-18480 -44270,-18480 -37340,0 -74690,26270 -83430,58680 -8740,32400 14450,58670 51790,58670 19420,0 38840,-7110 54240,-18480l41290 56540c-33670,22700 -74680,36630 -115670,36630 -84880,0 -137590,-59710 -117730,-133360 19870,-73670 104770,-133380 189650,-133380z"/>
  <path class="fil3" d="M1006800 570760l7680 -112260 -86510 112260 -47250 0c-6570,-29650 -15400,-67080 -26490,-112260l-52850 112260 -95330 0 121570 -250530 90940 0 23120 109870 83040 -109870 90600 0 -13190 250530 -95330 0z"/>
  <polygon class="fil3" points="1093670,570760 1160850,321580 1255850,321580 1188660,570760 "/>
  <path class="fil3" d="M1509970 406430c-9960,36970 -30760,61870 -62400,74720 -22770,9240 -59510,13410 -110200,12510l-20790 77100 -97370 0 67190 -249180 139290 0c29520,0 52180,6650 67980,19940 18470,15110 23900,36740 16300,64910zm-100160 340c2740,-10140 -1420,-16450 -12470,-18930 -4040,-900 -14710,-1470 -32000,-1690l-11670 43270 19950 0c20060,0 32120,-7550 36190,-22650z"/>
  <path class="fil4" d="M859010 650010c-3330,12580 -11450,22510 -24370,29800 -11130,6290 -23320,9430 -36560,9430 -13240,0 -23830,-3140 -31760,-9430 -9130,-7290 -12030,-17220 -8700,-29800 3360,-12710 11500,-22670 24400,-29890 11110,-6220 23400,-9370 36860,-9430l20 -100c13510,0 24110,3110 31790,9330 8950,7220 11720,17250 8320,30090zm526190 -39120c12010,0 21850,4080 28160,10730l-20950 16570c-2730,-3340 -7310,-5420 -13000,-5420 -10940,0 -21850,7700 -24360,17190 -2510,9500 4320,17190 15260,17190 5690,0 11370,-2080 15860,-5410l12180 16560c-9830,6650 -21830,10740 -33840,10740 -24860,0 -40390,-17500 -34680,-39080 5720,-21580 30500,-39070 55370,-39070zm-444620 75380l2090 -32890 -25190 32890 -13840 0c-1970,-8690 -4610,-19650 -7920,-32890l-15330 32890 -27930 0 35260 -73400 26650 0 6930 32190 24170 -32190 26540 0 -3500 73400 -27930 0zm-206970 -75380c12010,0 21850,4080 28160,10730l-20950 16570c-2730,-3340 -7310,-5420 -13000,-5420 -10940,0 -21850,7700 -24360,17190 -2520,9500 4320,17190 15260,17190 5690,0 11360,-2080 15860,-5410l12180 16560c-9830,6650 -21830,10740 -33840,10740 -24860,0 -40390,-17500 -34680,-39080 5710,-21580 30500,-39070 55370,-39070zm913240 75670l-26020 0 -27600 -37940 -10040 37940 -28300 0 19450 -73490 27210 0 27130 37840 10020 -37840 27600 0 -19450 73490zm-91330 -36550c-3320,12580 -11450,22510 -24370,29800 -11130,6290 -23320,9430 -36560,9430 -13240,0 -23830,-3140 -31760,-9430 -9130,-7290 -12030,-17220 -8700,-29800 3370,-12710 11500,-22670 24400,-29890 11110,-6220 23400,-9370 36860,-9430l20 -100c13510,0 24110,3110 31800,9330 8940,7220 11720,17250 8310,30090zm-28620 -290c1460,-5500 220,-9840 -3700,-13010 -3370,-2780 -7930,-4170 -13700,-4170 -5950,0 -11350,1350 -16170,4070 -5590,3110 -9130,7480 -10620,13110 -1470,5560 -200,9890 3810,13010 3450,2710 8090,4070 13910,4070 5700,0 11000,-1390 15910,-4170 5600,-3180 9130,-7490 10560,-12910zm-91580 36840l-27910 0 19460 -73490 27900 0 -19450 73490zm-112970 0l-31080 0 -2730 -12210 -26810 0 -9490 12210 -30390 0 55510 -73490 28800 0 16190 73490zm-36990 -30190l-1930 -12610 -8800 12610 10730 0zm-56560 -23440l-18670 0 -14280 53930 -28000 0 14270 -53930 -18860 0 5280 -19960 65540 0 -5280 19960zm-79270 21450c-6120,23110 -22780,34660 -49990,34660 -27080,0 -37570,-11520 -31470,-34560l11020 -41610 28300 0 -10990 41510c-2490,9400 370,14110 8580,14110 8280,0 13650,-4670 16120,-14010l11020 -41610 28400 0 -10990 41510zm-84240 -16380c-2880,10860 -8950,18170 -18230,21950 -6680,2710 -17460,3930 -32350,3670l-6080 22940 -28600 0 19460 -73490 40910 0c8680,0 15340,1950 20000,5860 5450,4440 7080,10790 4890,19070zm-29430 100c790,-2980 -440,-4840 -3690,-5560 -1190,-270 -4320,-430 -9400,-500l-3370 12710 5860 0c5900,0 9430,-2220 10600,-6650zm-205470 11620c1460,-5500 220,-9840 -3700,-13010 -3370,-2780 -7940,-4170 -13700,-4170 -5960,0 -11350,1350 -16170,4070 -5590,3110 -9130,7480 -10620,13110 -1470,5560 -200,9890 3800,13010 3460,2710 8100,4070 13920,4070 5700,0 11000,-1390 15900,-4170 5610,-3180 9130,-7490 10570,-12910z"/>
  <path class="fil5" d="M859010 650010c-3330,12580 -11450,22510 -24370,29800 -11130,6290 -23320,9430 -36560,9430 -13240,0 -23830,-3140 -31760,-9430 -9130,-7290 -12030,-17220 -8700,-29800 3360,-12710 11500,-22670 24400,-29890 11110,-6220 23400,-9370 36860,-9430l20 -100c13510,0 24110,3110 31790,9330 8950,7220 11720,17250 8320,30090zm526190 -39120c12010,0 21850,4080 28160,10730l-20950 16570c-2730,-3340 -7310,-5420 -13000,-5420 -10940,0 -21850,7700 -24360,17190 -2510,9500 4320,17190 15260,17190 5690,0 11370,-2080 15860,-5410l12180 16560c-9830,6650 -21830,10740 -33840,10740 -24860,0 -40390,-17500 -34680,-39080 5720,-21580 30500,-39070 55370,-39070zm-444620 75380l2090 -32890 -25190 32890 -13840 0c-1970,-8690 -4610,-19650 -7920,-32890l-15330 32890 -27930 0 35260 -73400 26650 0 6930 32190 24170 -32190 26540 0 -3500 73400 -27930 0zm-206970 -75380c12010,0 21850,4080 28160,10730l-20950 16570c-2730,-3340 -7310,-5420 -13000,-5420 -10940,0 -21850,7700 -24360,17190 -2520,9500 4320,17190 15260,17190 5690,0 11360,-2080 15860,-5410l12180 16560c-9830,6650 -21830,10740 -33840,10740 -24860,0 -40390,-17500 -34680,-39080 5710,-21580 30500,-39070 55370,-39070zm913240 75670l-26020 0 -27600 -37940 -10040 37940 -28300 0 19450 -73490 27210 0 27130 37840 10020 -37840 27600 0 -19450 73490zm-91330 -36550c-3320,12580 -11450,22510 -24370,29800 -11130,6290 -23320,9430 -36560,9430 -13240,0 -23830,-3140 -31760,-9430 -9130,-7290 -12030,-17220 -8700,-29800 3370,-12710 11500,-22670 24400,-29890 11110,-6220 23400,-9370 36860,-9430l20 -100c13510,0 24110,3110 31800,9330 8940,7220 11720,17250 8310,30090zm-28620 -290c1460,-5500 220,-9840 -3700,-13010 -3370,-2780 -7930,-4170 -13700,-4170 -5950,0 -11350,1350 -16170,4070 -5590,3110 -9130,7480 -10620,13110 -1470,5560 -200,9890 3810,13010 3450,2710 8090,4070 13910,4070 5700,0 11000,-1390 15910,-4170 5600,-3180 9130,-7490 10560,-12910zm-91580 36840l-27910 0 19460 -73490 27900 0 -19450 73490zm-112970 0l-31080 0 -2730 -12210 -26810 0 -9490 12210 -30390 0 55510 -73490 28800 0 16190 73490zm-36990 -30190l-1930 -12610 -8800 12610 10730 0zm-56560 -23440l-18670 0 -14280 53930 -28000 0 14270 -53930 -18860 0 5280 -19960 65540 0 -5280 19960zm-79270 21450c-6120,23110 -22780,34660 -49990,34660 -27080,0 -37570,-11520 -31470,-34560l11020 -41610 28300 0 -10990 41510c-2490,9400 370,14110 8580,14110 8280,0 13650,-4670 16120,-14010l11020 -41610 28400 0 -10990 41510zm-84240 -16380c-2880,10860 -8950,18170 -18230,21950 -6680,2710 -17460,3930 -32350,3670l-6080 22940 -28600 0 19460 -73490 40910 0c8680,0 15340,1950 20000,5860 5450,4440 7080,10790 4890,19070zm-29430 100c790,-2980 -440,-4840 -3690,-5560 -1190,-270 -4320,-430 -9400,-500l-3370 12710 5860 0c5900,0 9430,-2220 10600,-6650zm-205470 11620c1460,-5500 220,-9840 -3700,-13010 -3370,-2780 -7940,-4170 -13700,-4170 -5960,0 -11350,1350 -16170,4070 -5590,3110 -9130,7480 -10620,13110 -1470,5560 -200,9890 3800,13010 3460,2710 8100,4070 13920,4070 5700,0 11000,-1390 15900,-4170 5610,-3180 9130,-7490 10570,-12910z"/>
  <path class="fil6" style="mask:url(#id0)" d="M69380 222890l38100 77920 -92090 188810c105760,-31840 215570,-54190 324640,-70680 132480,-20040 266660,-31570 400550,-36500l45520 -93330c8400,-17210 1170,-38210 -16050,-46610l-480940 -234570c-17220,-8400 -38210,-1170 -46610,16050l-97020 198910 -76100 0zm733860 157720c29010,-630 58030,-930 87050,-930 12100,0 24200,70 36300,180l-11620 -55210 -84580 0 -27150 55960zm181250 170c41010,940 82010,2490 122970,4700l3200 -60830 -83740 0 -42430 56130zm163070 7070c28070,1810 56110,3930 84120,6380l18400 -68230 -85840 0 -16680 61850zm264020 26830c44440,6290 88760,13540 132870,21900 13720,-31570 50630,-52840 84490,-52840 16430,0 33200,4990 44800,16860l64630 -50910c-23660,-22680 -57030,-31800 -89290,-31800 -48970,0 -98580,20420 -135010,52770l-5250 4660 -1940 -6740c-2760,-9590 -8380,-17310 -16030,-23650 -17940,-14890 -42510,-18930 -65160,-18930l-135900 0 -19370 71820c28260,2780 56480,5910 84660,9390l6880 -25530 3440 50c7040,90 14110,220 21140,590 3700,200 8160,390 11770,1200 12890,2890 19320,11240 15780,24410 -640,2330 -1460,4600 -2510,6750z"/>
 </g>
</svg>
